<?xml version="1.0" encoding="utf-8"?>
<svg version="1.1" xmlns:xlink="http://www.w3.org/1999/xlink" width="37px" height="40px" xmlns="http://www.w3.org/2000/svg">
  <defs>
    <filter x="1531px" y="76px" width="37px" height="40px" filterUnits="userSpaceOnUse" id="filter14">
      <feOffset dx="1" dy="1" in="SourceAlpha" result="shadowOffsetInner" />
      <feGaussianBlur stdDeviation="2.5" in="shadowOffsetInner" result="shadowGaussian" />
      <feComposite in2="shadowGaussian" operator="atop" in="SourceAlpha" result="shadowComposite" />
      <feColorMatrix type="matrix" values="0 0 0 0 0  0 0 0 0 0  0 0 0 0 0  0 0 0 0.698039215686274 0  " in="shadowComposite" />
    </filter>
    <g id="widget15">
      <path d="M 1548.5 109.145382469665  C 1543.3 101.974081519794  1535.5 97.6713009498712  1535.5 90.5  C 1535.5 86.7857142857143  1538.1 80.5  1548.5 80.5  C 1558.9 80.5  1561.5 86.7857142857143  1561.5 90.5  C 1561.5 97.6713009498712  1553.7 101.974081519794  1548.5 109.145382469665  Z " fill-rule="nonzero" fill="#009dd9" stroke="none" />
      <path d="M 1548.5 110  C 1543.1 102.5  1535 98  1535 90.5  C 1535 86.6  1537.7 80  1548.5 80  C 1559.3 80  1562 86.6  1562 90.5  C 1562 98  1553.9 102.5  1548.5 110  Z M 1548.5 108.29076493933  C 1553.5 101.448163039588  1561 97.3426018997424  1561 90.5  C 1561 86.9714285714286  1558.5 81  1548.5 81  C 1538.5 81  1536 86.9714285714286  1536 90.5  C 1536 97.3426018997424  1543.5 101.448163039588  1548.5 108.29076493933  Z " fill-rule="nonzero" fill="#ffffff" stroke="none" />
    </g>
  </defs>
  <g transform="matrix(1 0 0 1 -1531 -76 )">
    <use xlink:href="#widget15" filter="url(#filter14)" />
    <use xlink:href="#widget15" />
  </g>
</svg>