<?xml version="1.0" encoding="utf-8"?>
<svg version="1.1" xmlns:xlink="http://www.w3.org/1999/xlink" width="12px" height="12px" viewBox="191 192  12 12" xmlns="http://www.w3.org/2000/svg">
  <path d="M 197 192  C 200.36 192  203 194.64  203 198  C 203 201.36  200.36 204  197 204  C 193.64 204  191 201.36  191 198  C 191 194.64  193.64 192  197 192  Z " fill-rule="nonzero" fill="#f0f0f0" stroke="none" />
  <path d="M 197 192.5  C 200.08 192.5  202.5 194.92  202.5 198  C 202.5 201.08  200.08 203.5  197 203.5  C 193.92 203.5  191.5 201.08  191.5 198  C 191.5 194.92  193.92 192.5  197 192.5  Z " stroke-width="1" stroke="#797979" fill="none" />
  <path d="M 197 201  C 195.32 201  194 199.68  194 198  C 194 196.32  195.32 195  197 195  C 198.68 195  200 196.32  200 198  C 200 199.68  198.68 201  197 201  " fill-rule="nonzero" fill="#797979" stroke="none" />
</svg>