<?xml version="1.0" encoding="utf-8"?>
<svg version="1.1" xmlns:xlink="http://www.w3.org/1999/xlink" width="12px" height="12px" viewBox="182 66  12 12" xmlns="http://www.w3.org/2000/svg">
  <path d="M 188 66  C 191.36 66  194 68.64  194 72  C 194 75.36  191.36 78  188 78  C 184.64 78  182 75.36  182 72  C 182 68.64  184.64 66  188 66  Z " fill-rule="nonzero" fill="#f0f0f0" stroke="none" />
  <path d="M 188 66.5  C 191.08 66.5  193.5 68.92  193.5 72  C 193.5 75.08  191.08 77.5  188 77.5  C 184.92 77.5  182.5 75.08  182.5 72  C 182.5 68.92  184.92 66.5  188 66.5  Z " stroke-width="1" stroke="#797979" fill="none" />
  <path d="M 188 75  C 186.32 75  185 73.68  185 72  C 185 70.32  186.32 69  188 69  C 189.68 69  191 70.32  191 72  C 191 73.68  189.68 75  188 75  " fill-rule="nonzero" fill="#797979" stroke="none" />
</svg>