<?xml version="1.0" encoding="utf-8"?>
<svg version="1.1" xmlns:xlink="http://www.w3.org/1999/xlink" width="12px" height="12px" viewBox="99 66  12 12" xmlns="http://www.w3.org/2000/svg">
  <path d="M 105 66  C 108.36 66  111 68.64  111 72  C 111 75.36  108.36 78  105 78  C 101.64 78  99 75.36  99 72  C 99 68.64  101.64 66  105 66  Z " fill-rule="nonzero" fill="#f0f0f0" stroke="none" />
  <path d="M 105 66.5  C 108.08 66.5  110.5 68.92  110.5 72  C 110.5 75.08  108.08 77.5  105 77.5  C 101.92 77.5  99.5 75.08  99.5 72  C 99.5 68.92  101.92 66.5  105 66.5  Z " stroke-width="1" stroke="#797979" fill="none" />
  <path d="M 105 75  C 103.32 75  102 73.68  102 72  C 102 70.32  103.32 69  105 69  C 106.68 69  108 70.32  108 72  C 108 73.68  106.68 75  105 75  " fill-rule="nonzero" fill="#797979" stroke="none" />
</svg>