<?xml version="1.0" encoding="utf-8"?>
<svg version="1.1" xmlns:xlink="http://www.w3.org/1999/xlink" width="40px" height="40px" xmlns="http://www.w3.org/2000/svg">
  <defs>
    <filter x="1563px" y="99px" width="40px" height="40px" filterUnits="userSpaceOnUse" id="filter50">
      <feOffset dx="1" dy="1" in="SourceAlpha" result="shadowOffsetInner" />
      <feGaussianBlur stdDeviation="2.5" in="shadowOffsetInner" result="shadowGaussian" />
      <feComposite in2="shadowGaussian" operator="atop" in="SourceAlpha" result="shadowComposite" />
      <feColorMatrix type="matrix" values="0 0 0 0 0  0 0 0 0 0  0 0 0 0 0  0 0 0 0.698039215686274 0  " in="shadowComposite" />
    </filter>
    <g id="widget51">
      <path d="M 1582 132.199609470321  C 1576.2 125.007451981736  1567.5 120.692157488585  1567.5 113.5  C 1567.5 109.785714285714  1570.4 103.5  1582 103.5  C 1593.6 103.5  1596.5 109.785714285714  1596.5 113.5  C 1596.5 120.692157488585  1587.8 125.007451981736  1582 132.199609470321  Z " fill-rule="nonzero" fill="#009dd9" stroke="none" />
      <path d="M 1582 133  C 1576 125.5  1567 121  1567 113.5  C 1567 109.6  1570 103  1582 103  C 1594 103  1597 109.6  1597 113.5  C 1597 121  1588 125.5  1582 133  Z M 1582 131.399218940642  C 1587.6 124.514903963472  1596 120.38431497717  1596 113.5  C 1596 109.971428571429  1593.2 104  1582 104  C 1570.8 104  1568 109.971428571429  1568 113.5  C 1568 120.38431497717  1576.4 124.514903963472  1582 131.399218940642  Z " fill-rule="nonzero" fill="#ffffff" stroke="none" />
    </g>
  </defs>
  <g transform="matrix(1 0 0 1 -1563 -99 )">
    <use xlink:href="#widget51" filter="url(#filter50)" />
    <use xlink:href="#widget51" />
  </g>
</svg>