<?xml version="1.0" encoding="utf-8"?>
<svg version="1.1" xmlns:xlink="http://www.w3.org/1999/xlink" width="438px" height="186px" xmlns="http://www.w3.org/2000/svg">
  <g transform="matrix(1 0 0 1 -60 -116 )">
    <path d="M 61 122  A 5 5 0 0 1 66 117 L 492 117  A 5 5 0 0 1 497 122 L 497 296  A 5 5 0 0 1 492 301 L 66 301  A 5 5 0 0 1 61 296 L 61 122  Z " fill-rule="nonzero" fill="#000000" stroke="none" fill-opacity="0.0196078431372549" />
    <path d="M 60.5 122  A 5.5 5.5 0 0 1 66 116.5 L 492 116.5  A 5.5 5.5 0 0 1 497.5 122 L 497.5 296  A 5.5 5.5 0 0 1 492 301.5 L 66 301.5  A 5.5 5.5 0 0 1 60.5 296 L 60.5 122  Z " stroke-width="1" stroke-dasharray="9,4" stroke="#108ee9" fill="none" stroke-dashoffset="0.5" />
  </g>
</svg>