<?xml version="1.0" encoding="utf-8"?>
<svg version="1.1" xmlns:xlink="http://www.w3.org/1999/xlink" width="12px" height="12px" viewBox="137 109  12 12" xmlns="http://www.w3.org/2000/svg">
  <path d="M 143 109  C 146.36 109  149 111.64  149 115  C 149 118.36  146.36 121  143 121  C 139.64 121  137 118.36  137 115  C 137 111.64  139.64 109  143 109  Z " fill-rule="nonzero" fill="#f0f0f0" stroke="none" />
  <path d="M 143 109.5  C 146.08 109.5  148.5 111.92  148.5 115  C 148.5 118.08  146.08 120.5  143 120.5  C 139.92 120.5  137.5 118.08  137.5 115  C 137.5 111.92  139.92 109.5  143 109.5  Z " stroke-width="1" stroke="#797979" fill="none" />
  <path d="M 143 118  C 141.32 118  140 116.68  140 115  C 140 113.32  141.32 112  143 112  C 144.68 112  146 113.32  146 115  C 146 116.68  144.68 118  143 118  " fill-rule="nonzero" fill="#797979" stroke="none" />
</svg>