<?xml version="1.0" encoding="utf-8"?>
<svg version="1.1" xmlns:xlink="http://www.w3.org/1999/xlink" width="12px" height="12px" viewBox="106 196  12 12" xmlns="http://www.w3.org/2000/svg">
  <path d="M 112 196  C 115.36 196  118 198.64  118 202  C 118 205.36  115.36 208  112 208  C 108.64 208  106 205.36  106 202  C 106 198.64  108.64 196  112 196  Z " fill-rule="nonzero" fill="#f0f0f0" stroke="none" />
  <path d="M 112 196.5  C 115.08 196.5  117.5 198.92  117.5 202  C 117.5 205.08  115.08 207.5  112 207.5  C 108.92 207.5  106.5 205.08  106.5 202  C 106.5 198.92  108.92 196.5  112 196.5  Z " stroke-width="1" stroke="#797979" fill="none" />
  <path d="M 112 205  C 110.32 205  109 203.68  109 202  C 109 200.32  110.32 199  112 199  C 113.68 199  115 200.32  115 202  C 115 203.68  113.68 205  112 205  " fill-rule="nonzero" fill="#797979" stroke="none" />
</svg>